:SAMPLES-PER-SECOND 30
:FULLY-SPECIFIED
:DEGREES
499
root  41.8069 35.4774 7.22662 176.532 75.3306 -177.886
RightUpLeg  -27.4258 -8.50748 0.367075
RightLeg  46.2179 2.65196 2.62497
RightFoot  -10.3847 -0.0273444 -5.14052
RightToes  -2.21189e-009 0 -3.6325e-017
Spine  39.25 -5.13331 11.5888
Spine1  13.8065 -1.59422 0.0940359
HEad  -29.9118 -5.38993 2.70526
LeftShoulder1  1.62207 -1.68653 -25.1196
LeftArm  -6.34209 -21.9588 -49.2867
LeftForeArm  23.8813 -31.7717 -5.63017
LeftHand  -0.182443 0.572284 4.34985
RightShoulder  0.598347 -1.06306 18.1293
RightArm  10.8653 33.6139 53.9447
RightForeArm  1.20047 4.61273 6.9196
RightHand  -0.811016 7.22236 -7.80644
LeftUpLeg  -36.1826 12.4835 0.109674
LeftLeg  63.4142 -1.93772 -3.63006
LeftFoot  -3.79369 0.070732 -0.708431
LeftToes  -4.03379e-008 1.61488e-010 -5.81581e-011
500
root  42.6177 35.6558 6.8325 175.892 76.378 179.834
RightUpLeg  -27.6526 -8.09381 -0.342058
RightLeg  46.2541 2.9922 3.01482
RightFoot  -11.3574 -0.077834 -5.30811
RightToes  -2.21189e-009 0 -3.6325e-017
Spine  40.4824 -4.93631 11.0559
Spine1  14.5036 -0.836816 -1.79695
HEad  -32.697 -5.5782 5.08282
LeftShoulder1  1.82472 -2.79669 -22.6425
LeftArm  -8.28213 -26.3977 -50.2633
LeftForeArm  23.4414 -30.6621 -5.38713
LeftHand  -0.235009 0.194086 5.29215
RightShoulder  0.656709 -0.712571 17.0038
RightArm  8.75991 38.8254 53.9909
RightForeArm  -0.286806 2.72169 6.06181
RightHand  -0.737256 7.38485 -7.04539
LeftUpLeg  -37.8193 11.889 0.109501
LeftLeg  49.3395 -2.06398 -2.12909
LeftFoot  -3.7329 0.0651926 -0.595166
LeftToes  -4.03379e-008 1.61488e-010 -5.81581e-011
501
root  43.4138 35.7223 6.36132 176.971 77.8727 179.39
RightUpLeg  -28.2152 -7.40724 -0.637287
RightLeg  46.8233 3.2046 3.31727
RightFoot  -11.9507 -0.112091 -5.91664
RightToes  -2.21189e-009 0 -3.6325e-017
Spine  42.3027 -4.58482 10.3175
Spine1  14.4925 -0.135743 -2.84994
HEad  -35.4304 -5.08703 5.42241
LeftShoulder1  1.93147 -3.35501 -21.808
LeftArm  -9.93144 -31.0423 -50.0311
LeftForeArm  22.8929 -29.611 -5.17134
LeftHand  -0.248772 -0.0747221 5.31125
RightShoulder  0.707725 -0.342635 15.7747
RightArm  6.55903 43.2976 53.3655
RightForeArm  -2.23168 2.52734 5.24804
RightHand  -0.78408 7.03468 -7.65252
LeftUpLeg  -37.4487 10.2875 1.49005
LeftLeg  34.1342 -2.90383 -1.68966
LeftFoot  -2.055 0.265927 -3.11272
LeftToes  -4.03379e-008 1.61488e-010 -5.81581e-011
502
root  44.2065 35.7653 5.77872 -178.47 79.5346 -177.227
RightUpLeg  -28.4731 -7.51077 -0.313403
RightLeg  47.3195 3.8164 4.09654
RightFoot  -12.6607 -0.148977 -5.72385
RightToes  -2.21189e-009 0 -3.6325e-017
Spine  43.5993 -4.2843 9.90853
Spine1  15.0418 0.229116 -2.91861
HEad  -38.5594 -4.40204 6.45357
LeftShoulder1  2.01371 -3.5312 -22.302
LeftArm  -10.657 -36.4114 -48.3098
LeftForeArm  20.6541 -27.9299 -4.90714
LeftHand  -0.308735 -0.390209 6.28896
RightShoulder  0.797778 0.468233 13.2293
RightArm  3.81332 47.2606 52.6622
RightForeArm  -4.84056 2.90627 4.2632
RightHand  -0.838113 7.74421 -7.74531
LeftUpLeg  -36.2711 7.80134 4.34204
LeftLeg  23.3959 -4.448 -1.81691
LeftFoot  -0.173399 0.423565 -4.35944
LeftToes  -4.03379e-008 1.61488e-010 -5.81581e-011
503
root  44.99 35.5386 5.11555 -177.498 81.4863 -176.991
RightUpLeg  -30.2956 -8.19048 -1.03027
RightLeg  51.4396 4.39269 5.54433
RightFoot  -12.8079 -0.136213 -4.17419
RightToes  -2.21189e-009 0 -3.6325e-017
Spine  45.1327 -3.78675 8.24258
Spine1  15.3361 0.421589 -3.08277
HEad  -40.1595 -3.07734 6.57366
LeftShoulder1  2.11338 -3.92913 -22.1342
LeftArm  -12.5133 -40.3103 -46.5754
LeftForeArm  19.2038 -26.5788 -4.68318
LeftHand  -0.258537 0.133488 5.75303
RightShoulder  0.864012 1.30906 10.7113
RightArm  0.672604 51.0673 51.6146
RightForeArm  -5.42661 3.54841 3.13719
RightHand  -0.732743 7.47252 -6.96243
LeftUpLeg  -35.8309 7.54394 5.16545
LeftLeg  20.7956 -4.1508 -1.40573
LeftFoot  3.8441 0.598873 -4.57103
LeftToes  -4.03379e-008 1.61488e-010 -5.81581e-011
